<?xml version="1.0" standalone="no"?>
<!DOCTYPE svg PUBLIC "-//W3C//DTD SVG 20010904//EN"
 "http://www.w3.org/TR/2001/REC-SVG-20010904/DTD/svg10.dtd">
<svg version="1.0" xmlns="http://www.w3.org/2000/svg"
 width="1280.000000pt" height="819.000000pt" viewBox="0 0 1280.000000 819.000000"
 preserveAspectRatio="xMidYMid meet">
<metadata>
Created by potrace 1.16, written by Peter Selinger 2001-2019
</metadata>
<g transform="translate(0.000000,819.000000) scale(0.100000,-0.100000)"
fill="#000000" stroke="none">
<path d="M1758 5799 c-13 -17 -23 -34 -23 -37 -1 -11 -39 -66 -55 -79 -8 -7
-11 -13 -6 -13 6 0 -4 -10 -20 -22 -36 -27 -153 -151 -215 -228 -71 -88 -127
-150 -209 -230 -41 -41 -102 -106 -135 -145 -33 -38 -64 -73 -70 -77 -5 -4
-10 -11 -11 -15 -2 -18 -17 -43 -26 -43 -11 0 -198 -194 -298 -310 -40 -47
-121 -133 -179 -193 -58 -59 -104 -108 -101 -110 2 -1 -3 -12 -11 -25 -11 -15
-22 -20 -34 -16 -14 6 -16 3 -10 -14 4 -13 2 -22 -4 -22 -6 0 -11 -7 -11 -15
0 -18 -17 -20 -22 -3 -3 7 -7 5 -11 -6 -4 -10 -3 -15 3 -11 6 3 10 2 10 -4 0
-5 -6 -14 -14 -18 -21 -13 -26 -63 -7 -82 9 -10 30 -35 46 -56 40 -51 135
-145 147 -145 6 0 8 -7 4 -15 -3 -8 1 -18 8 -22 7 -5 44 -44 81 -88 37 -44
104 -117 149 -163 156 -161 201 -209 241 -257 22 -27 85 -97 140 -157 55 -60
126 -139 157 -176 31 -37 66 -71 77 -76 12 -5 21 -13 21 -18 0 -19 2 -24 17
-40 9 -10 20 -15 25 -12 6 4 8 -3 3 -17 -4 -16 -3 -20 3 -11 7 11 12 10 26 -3
9 -9 16 -21 16 -27 0 -6 2 -9 5 -6 7 7 71 -57 94 -92 8 -14 64 -80 124 -147
73 -82 115 -121 128 -120 19 1 19 29 19 1699 l0 1698 -25 0 c-16 0 -32 -11
-47 -31z"/>
<path d="M2535 5821 c-4 -7 6 -11 27 -12 l33 -1 -30 -7 c-16 -3 -34 -15 -40
-27 -19 -38 -41 -54 -55 -41 -10 10 -12 6 -8 -16 4 -22 3 -25 -9 -16 -16 14
-16 14 -32 -28 -8 -18 -20 -33 -27 -33 -8 0 -14 -10 -14 -22 0 -21 0 -21 -15
-2 -14 19 -14 18 -15 -3 0 -14 -6 -23 -15 -23 -9 0 -15 -9 -15 -21 0 -24 -52
-77 -69 -71 -6 2 -11 -5 -11 -15 0 -10 -50 -72 -111 -138 -61 -66 -134 -146
-162 -177 -27 -32 -56 -58 -64 -58 -9 0 -11 -5 -6 -12 4 -7 6 -448 4 -980 l-3
-968 41 -42 c23 -24 44 -53 47 -65 4 -13 12 -23 19 -23 19 0 95 -89 95 -112 0
-11 5 -16 11 -13 13 9 72 -52 63 -66 -3 -6 3 -13 15 -16 12 -3 21 -12 21 -19
0 -8 6 -14 13 -14 17 0 127 -125 127 -145 0 -9 5 -13 11 -10 9 6 138 -121 139
-137 0 -15 63 -68 81 -68 18 0 19 35 16 1703 l-2 1702 -27 3 c-14 2 -29 -2
-33 -7z"/>
<path d="M2878 5519 c3 -234 1 -309 -8 -304 -6 4 -9 14 -6 22 4 9 1 22 -5 29
-6 8 -9 20 -6 28 3 8 -3 31 -14 52 -10 21 -19 49 -19 61 0 13 -5 23 -11 23 -6
0 -8 9 -4 20 4 12 2 20 -5 20 -7 0 -9 7 -6 15 6 16 4 21 -28 82 -9 17 -16 40
-16 52 0 11 -8 42 -19 68 -10 26 -16 54 -13 62 3 10 0 12 -12 8 -10 -4 -22 -7
-27 -7 -14 0 -7 -1083 7 -1101 6 -8 15 -31 18 -53 4 -21 11 -46 16 -55 4 -9
13 -36 19 -61 7 -25 19 -70 27 -100 9 -30 16 -65 16 -77 0 -13 4 -23 9 -23 5
0 9 -11 9 -25 0 -14 5 -25 11 -25 6 0 8 -8 4 -19 -3 -10 1 -23 8 -30 8 -6 12
-22 9 -36 -2 -15 0 -25 7 -25 6 0 11 -11 11 -25 0 -14 4 -25 9 -25 4 0 6 -10
4 -22 l-4 -23 219 3 220 3 6 52 c4 40 1 1674 -3 1735 -1 9 -51 12 -213 12
l-213 0 3 -311z"/>
<path d="M3608 5796 c2 -18 -1 -37 -7 -40 -6 -4 -11 -34 -11 -67 0 -37 -4 -59
-11 -59 -8 0 -10 -16 -5 -50 4 -30 3 -50 -3 -50 -5 0 -12 -30 -15 -67 -2 -38
-12 -120 -21 -183 -9 -63 -21 -164 -28 -225 -7 -60 -15 -114 -18 -120 -4 -5
-10 -57 -14 -115 -4 -58 -10 -109 -14 -115 -3 -5 -11 -57 -18 -115 -19 -166
-30 -244 -36 -260 -7 -16 -29 -218 -29 -259 0 -13 6 -27 14 -32 20 -13 485
-11 494 2 3 6 7 43 9 82 1 40 6 107 10 150 7 74 9 78 29 73 11 -3 38 -6 59 -6
l39 0 -4 -89 c-2 -56 1 -87 7 -85 6 3 9 -22 7 -66 l-4 -70 253 0 252 0 -6 93
c-3 50 -11 115 -16 142 -6 28 -17 97 -25 155 -9 58 -21 137 -27 175 -6 39 -13
93 -15 120 -3 28 -8 57 -11 65 -3 8 -7 29 -9 45 -4 37 -21 152 -33 225 -5 30
-10 79 -10 108 -1 29 -5 51 -10 48 -5 -3 -12 40 -16 97 -4 56 -11 104 -15 107
-7 5 -20 102 -42 313 l-11 107 -347 0 -346 0 4 -34z m383 -936 c5 0 9 -34 9
-75 l0 -75 -42 0 -41 0 8 103 c4 56 8 114 9 129 0 14 4 30 9 34 4 4 7 30 7 58
0 28 4 76 8 106 6 46 8 28 16 -112 5 -93 13 -168 17 -168z"/>
<path d="M4590 5813 c0 -8 5 -11 10 -8 7 4 10 -211 10 -639 0 -419 4 -647 10
-651 6 -3 10 -45 10 -93 0 -58 5 -97 15 -116 8 -15 15 -35 15 -42 0 -8 5 -14
10 -14 6 0 10 -6 10 -13 0 -27 73 -107 134 -146 34 -23 95 -52 136 -66 65 -22
90 -25 215 -25 78 0 145 3 149 7 3 4 14 8 24 9 28 4 85 27 125 53 21 13 40 21
43 19 7 -7 -70 -56 -100 -64 -29 -7 -45 -24 -23 -24 20 0 100 46 122 70 10 11
15 20 10 20 -4 0 10 19 32 43 65 71 109 161 122 250 7 51 11 313 11 762 l0
685 -247 0 -248 0 3 -422 c1 -233 3 -552 5 -710 2 -270 1 -287 -15 -282 -10 3
-18 0 -18 -6 0 -6 5 -8 10 -5 6 4 10 -7 10 -24 0 -27 -3 -31 -29 -31 -17 0
-31 6 -35 16 -3 9 -6 339 -6 734 0 664 -1 718 -17 724 -9 4 -126 6 -260 5
-206 -1 -243 -3 -243 -16z"/>
<path d="M5120 5810 c0 -12 5 -31 12 -43 8 -16 11 -160 10 -532 -2 -495 1
-600 19 -590 10 7 10 1175 -1 1175 -5 0 -15 3 -24 6 -12 4 -16 0 -16 -16z"/>
<path d="M5850 4936 c0 -806 2 -894 16 -900 9 -3 121 -6 250 -6 l234 0 0 363
0 362 102 -3 c56 -2 117 -1 135 3 l32 6 -2 197 -2 197 -132 3 -133 3 0 134 0
134 148 3 147 3 3 198 2 197 -400 0 -400 0 0 -894z"/>
<path d="M6836 5788 c-3 -24 -8 -61 -11 -83 -3 -22 -6 -61 -7 -87 0 -27 -4
-48 -8 -48 -7 0 -19 -98 -23 -197 -1 -24 -5 -43 -9 -43 -5 0 -8 -20 -8 -44 0
-24 -5 -68 -10 -97 -6 -30 -15 -90 -20 -134 -5 -44 -18 -154 -30 -245 -12 -91
-26 -217 -32 -280 -7 -63 -15 -117 -19 -120 -4 -3 -10 -54 -14 -115 -4 -60
-11 -114 -15 -120 -4 -5 -10 -40 -12 -77 l-4 -68 263 0 263 0 0 63 c0 34 3
105 6 157 l7 95 53 2 c37 2 54 -1 55 -10 14 -199 19 -276 19 -292 1 -20 6 -20
248 -14 136 3 248 6 250 7 6 4 -11 177 -18 187 -5 6 -11 54 -15 108 -4 53 -11
97 -16 97 -5 0 -9 25 -9 55 0 30 -3 55 -8 55 -4 0 -7 23 -6 50 0 28 -2 50 -6
50 -8 0 -23 125 -22 178 0 18 -4 30 -9 27 -5 -4 -9 18 -9 49 0 32 -4 56 -10
56 -6 0 -10 10 -8 23 3 28 -8 124 -32 292 -10 72 -21 153 -25 180 -7 67 -23
169 -43 288 l-16 97 -342 0 -343 0 -5 -42z m379 -780 c4 -79 8 -158 8 -175 0
-18 4 -33 9 -33 4 0 8 -19 8 -42 l0 -43 -45 -1 c-41 -1 -44 0 -40 20 3 11 7
53 10 91 2 39 5 72 6 75 2 6 4 18 14 153 4 53 11 97 15 97 4 0 11 -64 15 -142z"/>
<path d="M7852 4930 l3 -900 387 0 388 0 0 193 c0 241 10 227 -153 227 l-117
0 0 690 0 690 -255 0 -256 0 3 -900z"/>
<path d="M8735 5817 c-3 -7 -4 -405 -3 -885 3 -852 3 -874 22 -888 16 -11 65
-14 232 -14 117 0 219 3 228 6 14 5 16 47 16 363 l0 356 110 -3 c90 -3 116 -1
136 12 l24 17 -2 187 -3 187 -132 3 -133 3 0 134 0 134 148 3 147 3 3 198 2
197 -395 0 c-310 0 -397 -3 -400 -13z"/>
<path d="M9604 5815 c3 -8 6 -99 6 -202 l2 -188 145 3 c137 3 145 2 138 -15
-4 -10 -11 -31 -15 -48 -5 -16 -23 -75 -40 -130 -17 -55 -37 -120 -44 -145
-56 -197 -69 -243 -86 -298 -11 -34 -20 -74 -20 -87 0 -14 -4 -25 -9 -25 -5 0
-11 -18 -15 -40 -3 -23 -10 -49 -15 -58 -5 -9 -17 -44 -26 -77 -9 -33 -26 -89
-37 -125 -18 -55 -21 -86 -19 -200 2 -89 7 -137 14 -142 14 -9 818 -11 841 -2
14 5 16 32 16 199 l0 193 -33 11 c-22 8 -73 9 -155 3 -142 -9 -136 -14 -98 95
14 37 28 85 31 106 4 20 11 37 16 37 5 0 9 11 9 25 0 14 6 41 14 59 7 18 17
52 21 75 4 22 11 41 16 41 5 0 9 9 9 21 0 12 6 35 14 52 13 29 28 77 31 102 1
6 5 17 8 25 18 44 67 203 67 216 0 8 4 22 9 32 32 60 41 125 41 311 l0 191
-421 0 c-369 0 -420 -2 -415 -15z"/>
<path d="M10555 5747 c-10 -115 -2 -1693 8 -1704 10 -9 419 -17 454 -8 l23 5
0 360 0 360 114 0 c122 0 146 4 146 26 0 8 5 14 10 14 16 0 12 321 -4 343 -11
14 -31 17 -135 17 l-121 0 0 135 0 135 140 0 c104 0 142 3 145 13 2 6 6 96 7
200 l3 187 -392 0 -391 0 -7 -83z"/>
<path d="M11795 5823 c-22 -2 -49 -8 -60 -13 -11 -5 -37 -14 -58 -20 -21 -7
-50 -23 -64 -36 -14 -13 -32 -24 -40 -24 -8 0 -11 -5 -8 -11 4 -6 -2 -20 -13
-32 -37 -41 -62 -92 -62 -129 0 -20 -4 -40 -10 -43 -6 -4 -10 -78 -10 -190 0
-112 4 -186 10 -190 6 -3 10 -18 10 -33 0 -46 25 -75 103 -119 l39 -21 -37
-18 c-39 -18 -105 -92 -105 -117 0 -9 -4 -19 -10 -22 -6 -4 -10 -145 -10 -391
l0 -384 230 0 229 0 3 380 c3 366 4 380 23 394 11 9 29 15 40 13 20 -2 20 -10
23 -394 l2 -393 229 0 c200 0 230 2 242 17 12 13 15 169 17 900 l4 883 -339
-2 c-186 -1 -356 -3 -378 -5z m417 -478 c-3 -144 -3 -145 -24 -134 -17 9 -18
13 -7 20 11 7 9 8 -6 7 -20 -3 -215 91 -215 102 0 4 42 28 93 54 50 27 106 59
122 72 17 13 32 23 35 24 3 0 4 -65 2 -145z m-285 -5 c1 -77 -2 -140 -6 -140
-4 0 -15 8 -24 18 -10 10 -41 29 -70 43 -28 13 -58 29 -64 36 -7 6 -29 17 -48
23 -19 6 -35 15 -35 19 0 9 103 61 119 61 6 0 19 7 29 16 19 17 84 62 92 63 3
1 6 -62 7 -139z"/>
<path d="M2627 5353 c-4 -124 -6 -548 -5 -942 2 -596 3 -634 5 -228 l3 488 25
-28 c28 -32 33 -17 9 28 -13 26 -15 79 -14 367 2 479 1 542 -8 542 -5 0 -12
-102 -15 -227z"/>
<path d="M4452 3840 c-25 -23 -25 -23 -22 -139 l2 -84 -196 7 -195 8 -26 -26
-26 -26 3 -270 c3 -243 5 -271 21 -287 15 -15 36 -18 147 -18 170 0 164 -7
168 170 l4 135 265 0 266 0 -6 -29 c-4 -16 -21 -67 -38 -113 -28 -74 -41 -92
-114 -165 -95 -95 -191 -148 -335 -184 -119 -30 -155 -67 -121 -128 27 -48
144 -178 175 -194 24 -12 35 -13 80 -1 162 42 310 128 437 254 164 162 219
283 305 663 24 107 18 120 -82 179 l-81 49 -89 -11 c-49 -5 -117 -10 -152 -10
l-63 0 3 101 c4 138 3 139 -176 139 -119 0 -134 -2 -154 -20z m250 -176 l-5
-115 190 2 c190 1 191 1 237 -26 25 -15 48 -31 51 -35 10 -16 -58 -291 -97
-390 -90 -231 -269 -406 -507 -497 -47 -18 -93 -32 -102 -33 -9 0 -46 35 -83
77 l-67 78 38 8 c230 47 433 187 515 358 33 68 66 175 82 267 l6 32 -355 0
-355 0 0 -155 0 -155 -90 0 -90 0 0 235 0 235 220 0 220 0 0 115 0 115 98 0
98 0 -4 -116z"/>
<path d="M3192 3813 c-29 -11 -42 -59 -32 -114 6 -28 10 -86 10 -127 l0 -75
-236 7 c-301 9 -284 18 -284 -160 0 -105 3 -125 19 -145 l19 -24 236 4 c266 3
246 10 220 -80 -39 -134 -138 -253 -266 -321 -39 -20 -68 -43 -76 -60 -23 -49
-6 -75 94 -149 101 -75 134 -92 161 -82 41 15 164 106 221 163 115 115 184
252 219 439 l18 93 213 -4 214 -3 19 24 c16 20 19 40 19 145 0 116 -1 124 -24
145 -24 22 -25 23 -236 15 l-213 -7 7 74 c6 71 9 155 7 192 -1 9 -10 26 -21
37 -18 18 -33 20 -157 19 -76 0 -144 -3 -151 -6z m248 -228 l0 -155 235 0 235
0 0 -88 0 -87 -240 3 -240 4 0 -50 c0 -64 -22 -180 -49 -256 -41 -117 -130
-236 -241 -321 -99 -76 -95 -76 -188 -7 l-80 59 36 18 c66 31 162 106 203 158
76 96 118 203 134 341 l7 58 -261 -4 -261 -4 0 88 0 88 261 0 262 0 -5 155 -6
155 99 0 99 0 0 -155z"/>
<path d="M7916 3767 c-23 -23 -23 -26 -18 -193 6 -210 -12 -446 -40 -529 -31
-93 -76 -164 -150 -238 -115 -114 -112 -136 34 -231 55 -36 109 -66 120 -66
62 0 165 110 247 262 91 167 109 265 122 667 l10 304 -22 24 c-21 22 -29 23
-151 23 -121 0 -130 -1 -152 -23z m239 -274 c-8 -278 -20 -419 -46 -512 -31
-114 -101 -240 -178 -322 l-66 -70 -77 52 -78 52 74 77 c79 84 134 182 160
283 22 84 39 333 35 507 l-4 150 93 0 94 0 -7 -217z"/>
<path d="M8300 3770 c-11 -11 -20 -26 -20 -32 -2 -462 1 -1089 5 -1101 9 -21
142 -127 163 -128 33 -3 47 4 151 66 152 91 235 152 329 240 107 101 145 150
145 186 0 19 -20 59 -57 114 -102 149 -115 150 -244 14 -53 -55 -109 -110
-125 -121 l-29 -21 3 383 3 382 -23 19 c-20 16 -41 19 -152 19 -116 0 -131 -2
-149 -20z m242 -480 c-3 -366 -1 -430 11 -430 41 0 221 139 296 230 l47 57 52
-74 52 -74 -93 -92 c-93 -93 -224 -191 -340 -258 -34 -19 -72 -41 -83 -49 -20
-12 -26 -9 -73 30 l-51 43 -2 523 -3 524 95 0 95 0 -3 -430z"/>
<path d="M5340 3728 c-32 -12 -40 -43 -40 -166 0 -103 3 -123 19 -143 l19 -24
382 -3 381 -3 -6 -22 c-40 -133 -101 -231 -206 -331 -97 -92 -195 -149 -329
-191 -109 -34 -132 -45 -147 -75 -9 -18 -9 -30 0 -51 18 -42 173 -206 201
-213 32 -8 122 22 230 76 242 122 420 300 520 521 52 113 146 425 146 481 0
28 -37 62 -122 114 l-54 32 -488 3 c-268 1 -496 -1 -506 -5z m1023 -110 c28
-18 54 -36 59 -39 12 -8 -62 -273 -106 -385 -53 -130 -109 -218 -203 -315
-120 -125 -278 -227 -429 -279 l-50 -18 -67 73 c-37 41 -67 77 -67 82 0 5 31
17 70 26 156 41 342 159 446 285 83 101 154 255 178 385 l7 37 -411 0 -410 0
0 93 0 92 466 -2 466 -2 51 -33z"/>
<path d="M9840 3165 l0 -525 105 0 105 0 0 210 0 210 135 0 135 0 0 90 0 90
-135 0 -135 0 0 135 0 135 160 0 160 0 0 90 0 90 -265 0 -265 0 0 -525z"/>
<path d="M10530 3600 l0 -90 150 0 c83 0 150 -4 150 -8 0 -4 -74 -168 -165
-365 l-165 -357 0 -75 0 -75 295 0 295 0 0 95 0 95 -165 0 c-91 0 -165 4 -165
8 0 5 74 170 165 367 162 352 165 361 165 427 l0 68 -280 0 -280 0 0 -90z"/>
<path d="M11250 3165 l0 -525 105 0 105 0 0 210 0 210 135 0 135 0 0 90 0 90
-135 0 -135 0 0 135 0 135 160 0 160 0 0 90 0 90 -265 0 -265 0 0 -525z"/>
<path d="M11900 3165 l0 -525 105 0 105 0 0 196 0 195 27 -3 c25 -3 30 -14 94
-193 l67 -190 117 -3 c108 -2 116 -1 111 15 -3 10 -42 108 -85 218 l-79 200
28 18 c71 46 110 145 110 283 0 123 -23 188 -87 244 -69 60 -115 70 -330 70
l-183 0 0 -525z m341 329 c50 -44 63 -137 30 -211 -23 -50 -51 -69 -113 -78
l-48 -7 0 162 0 162 55 -4 c35 -3 63 -12 76 -24z"/>
<path d="M6609 3509 c-39 -14 -49 -49 -49 -164 0 -94 2 -106 23 -131 l23 -27
146 2 c144 2 145 2 152 -21 18 -68 -1 -234 -34 -299 -25 -48 -103 -117 -179
-158 -66 -35 -86 -63 -75 -107 7 -26 150 -149 192 -165 29 -11 70 6 150 60
123 83 214 213 249 356 10 39 18 71 19 73 1 1 23 -9 51 -23 62 -32 86 -25 161
48 84 81 261 315 282 371 12 35 -8 72 -72 127 l-60 52 -462 1 c-253 1 -468 4
-476 8 -8 4 -27 2 -41 -3z m990 -123 l42 -43 -62 -89 c-102 -147 -221 -284
-247 -284 -8 0 -40 18 -72 41 l-58 41 70 66 c38 37 83 86 100 109 l29 43 -380
-2 -381 -3 0 83 0 82 458 0 458 0 43 -44z m-440 -315 c-15 -269 -94 -413 -299
-543 -25 -15 -27 -14 -99 43 -40 33 -66 59 -58 59 34 0 167 102 207 158 58 80
74 143 75 284 l0 118 90 0 90 0 -6 -119z"/>
<path d="M9299 3411 c-117 -38 -193 -173 -165 -294 24 -101 92 -169 193 -193
102 -24 211 23 268 113 27 44 30 56 30 133 0 77 -3 89 -30 133 -17 27 -51 61
-78 79 -41 26 -60 32 -120 34 -40 2 -84 0 -98 -5z m161 -86 c57 -29 92 -88 92
-155 0 -99 -73 -172 -172 -172 -69 0 -126 36 -160 101 -17 33 -15 112 3 148
21 39 71 81 105 89 15 3 32 7 37 9 16 4 68 -7 95 -20z"/>
</g>
</svg>
