<?xml version="1.0" standalone="no"?>
<!DOCTYPE svg PUBLIC "-//W3C//DTD SVG 20010904//EN"
 "http://www.w3.org/TR/2001/REC-SVG-20010904/DTD/svg10.dtd">
<svg version="1.0" xmlns="http://www.w3.org/2000/svg"
 width="1280.000000pt" height="1280.000000pt" viewBox="0 0 1280.000000 1280.000000"
 preserveAspectRatio="xMidYMid meet">
<metadata>
Created by potrace 1.16, written by Peter Selinger 2001-2019
</metadata>
<g transform="translate(0.000000,1280.000000) scale(0.100000,-0.100000)"
fill="#000000" stroke="none">
<path d="M5875 12411 c-6 -5 -48 -21 -95 -36 -118 -39 -330 -142 -330 -161 0
-10 6 -13 18 -10 9 3 51 13 92 22 41 9 80 20 85 24 39 29 115 9 178 -47 l37
-33 -55 0 c-54 0 -57 -1 -107 -55 -45 -48 -56 -55 -90 -55 -21 0 -46 -4 -56
-10 -9 -5 -60 -20 -113 -33 -85 -21 -103 -30 -171 -83 -102 -79 -117 -112 -38
-80 54 21 58 20 30 -9 -13 -14 -20 -28 -16 -32 8 -8 89 34 150 79 48 34 117
41 109 10 -3 -12 -22 -24 -51 -33 -56 -17 -63 -33 -20 -45 25 -7 34 -16 36
-35 4 -30 -7 -40 -70 -64 -52 -19 -54 -24 -37 -91 10 -38 15 -44 38 -45 22 0
19 -3 -16 -16 -24 -8 -43 -19 -43 -24 0 -5 27 -9 60 -9 l60 0 -25 -56 c-16
-37 -57 -90 -120 -159 -90 -97 -97 -102 -120 -91 -14 6 -23 17 -20 26 2 8 7
31 10 50 6 33 4 37 -27 52 l-33 17 41 0 c23 1 75 4 118 7 l76 7 10 38 c12 44
6 60 -37 102 l-29 27 -55 -16 c-30 -9 -90 -33 -135 -54 -44 -21 -105 -46 -135
-56 -29 -9 -58 -21 -63 -25 -6 -5 -17 -9 -25 -9 -26 0 -171 -73 -171 -86 0
-13 11 -18 68 -29 l33 -7 -39 -33 c-28 -25 -45 -51 -61 -97 -18 -49 -34 -73
-74 -110 -50 -44 -52 -48 -41 -76 11 -29 9 -33 -33 -74 l-44 -43 26 70 c15 39
31 75 35 80 5 6 25 55 45 110 19 55 39 102 44 105 10 7 32 72 26 78 -11 12
-35 -11 -62 -60 -17 -29 -55 -93 -85 -143 -44 -72 -61 -114 -87 -210 -17 -66
-45 -149 -61 -185 -16 -36 -42 -96 -59 -134 -29 -65 -31 -75 -31 -200 -1 -163
-6 -174 -78 -156 -43 10 -56 20 -108 82 -36 44 -60 65 -62 56 -2 -8 7 -51 18
-94 18 -66 28 -86 66 -124 l44 -46 0 -151 c0 -140 1 -152 20 -164 l20 -14 -20
-55 c-37 -100 -24 -476 20 -575 21 -48 30 -139 30 -314 0 -174 2 -193 25 -262
14 -41 32 -87 39 -104 8 -16 28 -71 44 -121 17 -50 40 -107 50 -126 24 -43 67
-196 58 -205 -4 -4 -58 10 -121 30 l-114 38 -63 75 -62 74 -51 0 c-46 0 -55
-4 -89 -39 -54 -55 -86 -181 -86 -343 l0 -116 84 -139 c46 -76 83 -140 81
-142 -2 -2 -48 37 -102 87 -53 50 -101 88 -105 86 -4 -3 8 -35 26 -72 19 -37
37 -77 41 -90 7 -23 17 -38 134 -198 32 -45 62 -92 66 -105 4 -13 16 -40 26
-59 11 -19 19 -40 19 -46 0 -6 29 -51 65 -98 37 -51 69 -105 75 -129 6 -23 14
-49 19 -57 5 -9 12 -30 15 -47 6 -25 24 -42 89 -87 45 -30 95 -60 110 -65 40
-15 108 -14 149 3 l35 15 22 -132 c22 -124 25 -134 60 -172 20 -22 61 -71 91
-108 30 -38 56 -64 58 -59 2 8 -8 73 -79 482 -12 69 -23 126 -24 128 -2 2 -26
-22 -55 -53 -29 -30 -54 -54 -56 -52 -1 1 -10 45 -19 97 -8 52 -23 125 -33
163 l-16 67 -62 0 c-49 0 -64 4 -80 21 -55 62 -194 168 -244 186 l-54 20 -37
104 -38 104 0 191 -1 191 34 79 c19 43 38 80 43 81 4 1 57 -44 118 -101 l110
-103 -81 -41 c-44 -22 -85 -46 -91 -54 -5 -7 -20 -52 -32 -100 l-21 -88 22
-76 23 -76 155 -132 c192 -163 240 -200 240 -188 0 6 -11 72 -25 146 -23 122
-25 161 -25 393 l0 258 30 95 c27 85 30 109 30 226 0 71 7 181 15 242 13 97
13 122 1 178 -13 62 -13 70 9 133 12 36 41 103 64 149 23 46 53 126 67 178 18
66 40 119 75 176 27 45 49 85 49 89 0 4 -30 -1 -67 -12 -38 -10 -71 -19 -75
-19 -5 0 -8 61 -8 135 0 74 2 135 5 135 3 0 16 -7 29 -15 21 -14 30 -14 92 1
38 8 71 17 73 20 2 2 -9 8 -25 15 l-29 11 30 24 c19 16 26 27 19 32 -6 4 -39
25 -72 47 -34 22 -61 45 -62 50 0 6 26 25 58 43 91 51 86 44 63 90 -12 23 -21
44 -21 47 0 3 38 5 85 5 l85 0 0 34 0 34 78 8 77 7 77 -42 76 -41 237 0 236 0
61 41 60 41 97 -41 c53 -22 128 -47 167 -56 l72 -16 82 32 83 32 136 -31 c82
-19 171 -32 226 -34 85 -3 90 -2 93 18 2 16 20 29 64 48 l62 27 87 -87 88 -88
105 72 c58 40 110 72 117 72 6 0 54 -23 105 -51 l95 -51 44 41 c25 23 46 41
48 41 5 0 325 -325 375 -381 l41 -45 -86 -430 c-47 -236 -89 -433 -93 -437 -4
-5 -61 -4 -126 2 -108 9 -134 8 -279 -14 -96 -14 -184 -34 -220 -48 -33 -13
-105 -42 -159 -63 -56 -22 -121 -55 -149 -77 -26 -21 -54 -36 -61 -34 -7 3
-47 28 -90 56 -43 28 -86 51 -95 50 -9 0 -63 -17 -121 -37 l-105 -38 -11 -100
c-6 -56 -8 -143 -5 -194 l6 -93 39 47 c22 25 44 46 49 46 22 0 66 -43 70 -68
3 -24 5 -22 17 19 11 39 20 50 50 63 48 21 49 21 91 -17 l36 -32 -12 -90 c-11
-85 -20 -240 -18 -330 0 -22 17 -83 37 -135 34 -89 43 -101 130 -190 51 -52
119 -131 151 -174 51 -70 60 -90 75 -163 l17 -83 -58 -79 c-33 -44 -59 -84
-59 -89 0 -5 -14 -15 -30 -22 -17 -7 -29 -14 -27 -16 3 -3 38 7 97 28 14 5 47
38 75 74 27 35 52 64 55 64 3 0 30 -25 60 -56 89 -90 93 -89 64 14 -13 48 -34
142 -46 209 l-21 122 -86 69 -86 69 -82 174 c-79 170 -81 176 -88 272 -4 53
-10 97 -14 97 -4 0 -24 -18 -46 -40 -21 -22 -41 -37 -44 -34 -3 2 -13 43 -22
90 -19 93 -23 62 42 306 l9 37 93 4 c81 3 107 10 220 54 87 34 139 60 165 84
86 79 80 77 192 86 132 10 208 10 337 -1 l102 -8 62 37 c72 44 73 44 139 -38
49 -60 54 -68 135 -237 l55 -115 0 -263 0 -262 85 -208 c47 -115 85 -219 85
-231 0 -20 5 -18 56 24 31 25 78 73 105 107 l49 61 0 95 c0 94 0 95 -36 139
-30 37 -35 50 -32 81 3 20 -3 67 -12 104 l-17 68 95 117 c52 65 100 125 106
133 14 18 -46 -24 -64 -45 -24 -29 -30 -15 -30 73 0 69 4 96 20 127 31 59 39
100 69 326 24 181 31 212 56 255 27 46 29 58 53 354 l26 305 -33 175 c-18 96
-37 180 -42 186 -5 6 -18 36 -28 65 -18 53 -18 55 2 97 12 23 25 42 29 42 4 0
8 7 8 15 0 8 -4 15 -8 15 -19 0 -32 119 -37 360 -8 312 -15 398 -35 410 -8 5
-10 10 -5 10 6 0 5 4 -1 8 -7 4 -25 30 -41 57 -26 44 -47 121 -70 253 -4 26
-15 40 -49 60 -42 26 -43 27 -70 137 -14 60 -32 115 -38 120 -6 6 -44 45 -83
88 -64 68 -73 82 -73 115 0 37 -2 39 -69 72 -60 28 -75 41 -111 96 -50 76 -53
78 -125 108 -50 20 -55 25 -37 30 51 17 8 46 -67 46 -18 0 -39 15 -76 56 l-50
56 -66 -30 -66 -30 66 64 c62 61 71 66 166 94 111 34 155 51 155 62 0 9 -209
10 -262 2 -41 -7 -43 -9 -124 -106 -31 -38 -60 -68 -65 -68 -4 0 -20 20 -35
45 l-26 45 -100 0 -100 0 44 36 c64 54 62 58 -27 51 l-77 -6 21 23 c39 41 29
46 -96 46 -114 0 -117 1 -179 35 -35 20 -66 40 -69 45 -3 6 -14 10 -23 10 -14
0 -24 -24 -47 -120 -17 -66 -32 -120 -35 -120 -3 0 -4 38 -2 85 3 60 0 85 -8
85 -7 0 -61 -17 -121 -37 -108 -37 -110 -38 -156 -98 -25 -33 -50 -64 -54 -69
-4 -5 -35 -3 -72 4 -64 13 -64 13 -119 -18 -31 -18 -58 -32 -61 -32 -4 0 -27
55 -27 66 0 1 29 6 65 9 36 4 65 11 65 16 0 4 -16 16 -36 25 l-36 17 92 39
c77 32 104 38 162 38 59 0 69 3 66 16 -2 11 -26 23 -73 35 -107 27 -94 31
-287 -75 l-68 -37 -50 28 c-27 15 -94 60 -148 99 -89 65 -105 73 -182 89 -47
10 -89 22 -94 26 -13 12 -99 11 -111 0z m1184 -984 l-21 -67 20 -87 c11 -48
19 -89 18 -91 -2 -1 -24 24 -49 57 -43 55 -47 64 -47 116 0 55 1 58 48 100 26
24 48 42 49 41 1 -1 -7 -32 -18 -69z m1510 -2110 c59 -178 61 -187 61 -289 l0
-106 70 -106 c68 -104 70 -109 85 -206 16 -106 21 -475 7 -484 -4 -2 -107 76
-227 174 -122 99 -232 181 -247 184 -16 3 -28 12 -28 19 0 15 26 144 115 567
30 146 63 302 72 348 9 45 20 82 24 82 4 0 35 -83 68 -183z m-1602 -977 c42
-27 81 -50 87 -50 6 0 -4 -10 -21 -21 -33 -21 -33 -21 -33 -104 0 -45 -3 -97
-6 -114 l-7 -32 -28 27 c-23 22 -34 26 -64 21 -43 -7 -64 -22 -76 -56 -8 -20
-11 -22 -22 -9 -7 8 -24 22 -38 31 -26 15 -27 15 -65 -24 l-39 -40 -6 78 c-5
69 -1 125 18 239 4 24 12 34 36 42 18 6 64 22 102 36 39 14 74 25 78 25 4 1
42 -21 84 -49z m-2417 -1019 c1 -104 1 -107 40 -180 22 -41 38 -76 37 -77 -1
-1 -39 32 -84 74 l-83 77 19 90 c10 50 22 108 26 130 l7 40 19 -24 c16 -19 19
-40 19 -130z"/>
<path d="M5530 8606 c-67 -10 -93 -21 -233 -101 -170 -98 -172 -102 -34 -87
77 8 103 2 71 -16 -20 -11 10 -17 136 -27 393 -33 650 -75 677 -111 7 -10 13
-23 13 -28 0 -6 52 -44 116 -83 114 -73 116 -73 185 -73 47 0 71 4 74 13 2 6
6 50 7 96 l3 85 -93 66 c-77 54 -110 71 -190 95 -55 16 -155 58 -229 97 l-132
68 -110 -6 c-97 -6 -111 -5 -117 10 -7 19 -32 19 -144 2z"/>
<path d="M5667 8249 c-90 -12 -228 -66 -316 -125 -39 -26 -71 -49 -71 -51 0
-2 17 4 38 13 321 141 515 180 672 135 67 -19 245 -126 285 -171 11 -12 34
-32 50 -43 20 -14 13 -2 -25 39 -69 75 -223 174 -307 197 -68 18 -208 21 -326
6z"/>
<path d="M5653 8184 c-34 -7 -106 -35 -160 -62 -54 -27 -128 -61 -165 -77 -38
-15 -68 -33 -68 -39 0 -5 -11 -19 -25 -31 l-26 -20 174 0 174 0 35 45 c46 61
59 61 88 1 17 -37 31 -53 53 -61 33 -11 128 -12 167 -1 27 8 64 64 81 125 l10
39 47 -7 c64 -8 95 -55 57 -86 -26 -22 -16 -30 28 -24 32 5 55 0 101 -20 33
-15 61 -24 64 -21 3 3 -18 30 -47 59 -68 68 -218 160 -298 180 -73 19 -204 19
-290 0z"/>
<path d="M7559 8161 c-69 -11 -134 -32 -226 -71 l-129 -54 -37 -68 c-37 -67
-47 -125 -29 -171 6 -15 13 -12 47 23 44 45 55 48 80 20 15 -16 31 -20 82 -20
58 0 69 -4 124 -41 111 -75 124 -79 310 -79 l166 0 79 39 c43 22 74 40 67 40
-7 1 -56 -7 -110 -17 -78 -15 -126 -17 -238 -12 l-140 5 -77 48 c-59 36 -86
47 -118 47 -62 0 -46 24 18 28 29 2 52 8 52 13 0 6 -11 27 -25 47 l-25 36 31
32 c22 23 46 35 86 43 31 6 58 9 60 7 2 -2 8 -27 12 -56 10 -60 31 -83 96
-101 89 -25 126 -8 175 83 20 37 39 70 42 73 4 5 171 -63 200 -81 4 -3 1 -21
-7 -41 -8 -20 -14 -38 -12 -39 2 -2 19 10 39 26 22 18 52 32 79 35 l44 7 -24
-20 -25 -20 58 -37 c56 -36 60 -37 96 -25 75 25 75 24 -57 168 -48 52 -48 52
-123 59 -41 3 -91 14 -110 23 -19 10 -78 30 -130 44 -113 31 -247 33 -401 7z"/>
<path d="M8170 7189 c-36 -11 -78 -26 -95 -33 -16 -8 -53 -19 -80 -26 l-50
-13 25 -183 24 -184 81 -26 c44 -15 85 -31 92 -36 7 -5 14 -5 18 2 3 5 17 10
31 10 24 0 24 1 23 88 l-2 87 -9 -82 c-12 -100 -17 -103 -137 -65 l-86 28 -22
159 c-12 88 -22 167 -23 176 0 11 24 23 83 42 45 14 109 35 141 46 33 12 61
21 63 21 2 0 1 -73 -3 -162 -4 -90 -4 -161 -2 -158 3 3 8 78 12 168 6 130 5
162 -6 161 -7 0 -42 -9 -78 -20z"/>
<path d="M6288 6823 c-50 -22 -58 -29 -58 -53 0 -20 7 -30 28 -39 76 -35 135
-50 228 -55 56 -3 118 -13 139 -21 20 -9 41 -15 45 -13 5 2 -5 32 -23 68 -30
60 -37 68 -102 102 -90 48 -168 51 -257 11z"/>
<path d="M7012 6791 c-78 -6 -84 -8 -102 -36 -11 -16 -20 -36 -20 -42 0 -17
38 -16 90 2 63 22 128 19 177 -9 49 -28 83 -25 83 8 0 35 -21 53 -79 70 -30 9
-57 15 -60 14 -3 -1 -43 -4 -89 -7z"/>
<path d="M6428 6340 c-75 -7 -146 -33 -322 -115 -43 -21 -46 -24 -25 -28 13
-2 -1 -2 -32 0 -56 5 -56 4 -80 -34 -34 -54 -34 -53 -2 -53 19 0 38 -10 54
-26 25 -26 70 -54 89 -54 5 0 10 16 10 35 0 19 2 35 5 35 3 0 40 -20 81 -44
42 -24 105 -52 140 -62 52 -14 72 -25 98 -56 l33 -38 85 0 c64 0 97 5 129 20
47 21 163 28 174 10 4 -6 56 -10 124 -10 112 0 122 2 222 39 133 49 159 56
159 38 0 -19 134 -41 193 -32 65 10 77 21 49 44 -12 11 -20 26 -16 34 4 11 -4
17 -28 22 -18 4 -35 11 -38 15 -4 6 -50 28 -295 146 -80 38 -203 64 -302 64
-48 0 -128 7 -178 15 -94 17 -103 18 -175 34 -50 11 -44 11 -152 1z"/>
<path d="M5090 6060 c0 -71 -3 -130 -7 -130 -5 0 -30 27 -57 60 -27 34 -50 59
-52 57 -2 -1 11 -89 29 -193 31 -179 35 -194 67 -235 94 -120 188 -200 637
-542 7 -5 41 -17 75 -26 35 -9 64 -23 66 -30 1 -7 47 -66 101 -130 97 -115 99
-117 217 -179 65 -35 276 -148 467 -250 l348 -187 -3 -265 -4 -265 -41 -119
c-23 -65 -43 -119 -45 -121 -5 -5 -359 -35 -412 -35 -44 0 -508 112 -533 129
-5 3 -151 218 -324 476 -302 451 -317 475 -354 580 -21 61 -67 191 -103 290
l-64 180 12 183 c7 100 11 184 8 187 -4 4 -110 -66 -155 -102 -20 -17 -21 -22
-11 -68 5 -27 13 -54 18 -58 6 -7 -103 -233 -188 -387 -35 -64 -95 -129 -119
-130 -7 0 -13 -6 -13 -12 -1 -7 -24 -29 -51 -48 -56 -39 -81 -72 -128 -176
l-32 -71 66 -139 c66 -136 119 -249 175 -369 15 -33 54 -114 85 -180 70 -148
82 -172 300 -635 97 -206 183 -385 191 -397 18 -28 115 -95 219 -151 l80 -43
-50 5 c-35 4 -46 3 -35 -4 8 -6 33 -9 55 -8 23 1 45 -1 50 -4 6 -3 28 -11 50
-18 22 -7 67 -28 101 -46 52 -29 77 -55 187 -193 119 -150 136 -176 258 -413
72 -139 148 -284 169 -323 21 -38 86 -164 145 -280 60 -115 138 -266 175 -335
121 -226 168 -323 220 -460 28 -74 62 -162 74 -195 l24 -60 76 -3 c56 -2 77 1
80 10 2 7 23 81 46 163 40 145 81 291 174 623 25 86 81 287 126 445 79 282
133 429 410 1120 11 26 36 70 57 97 32 41 50 53 121 81 45 17 85 29 88 26 11
-10 -8 -88 -22 -94 -44 -17 -150 -235 -244 -503 -179 -508 -237 -665 -273
-736 -28 -55 -88 -246 -195 -624 -59 -204 -115 -392 -208 -687 -12 -41 -12
-43 8 -43 17 0 20 -5 16 -35 l-4 -35 2528 0 c1679 0 2528 3 2528 10 0 6 -4 10
-8 10 -25 0 -34 71 -47 398 -13 313 -22 397 -45 427 -4 6 -25 64 -46 130 -21
66 -41 122 -45 125 -3 3 -24 59 -44 125 -21 66 -41 122 -45 125 -6 5 -20 57
-60 235 -11 50 -25 99 -30 110 -5 11 -25 91 -45 177 -29 132 -35 177 -35 277
0 66 -4 121 -8 123 -4 2 -18 44 -31 93 -14 56 -34 103 -50 125 -15 19 -81 114
-146 210 -174 256 -205 298 -299 400 -18 19 -37 43 -43 53 -5 10 -57 69 -114
130 -58 62 -124 133 -147 158 -27 30 -74 63 -134 94 -51 27 -136 71 -188 99
-52 27 -126 66 -165 86 -38 20 -88 40 -110 44 -22 4 -44 11 -50 15 -5 4 -84
25 -175 46 -91 22 -167 42 -170 45 -3 3 -43 17 -90 31 -77 22 -92 24 -156 14
-70 -10 -74 -12 -151 -81 -66 -61 -94 -97 -180 -235 -55 -90 -143 -239 -194
-331 -83 -150 -103 -178 -188 -266 l-96 -99 -206 -101 c-113 -56 -212 -102
-220 -102 -8 0 -19 -4 -24 -9 -16 -13 -125 -40 -252 -61 -164 -27 -164 -27
-124 14 30 31 34 41 37 102 4 73 28 211 46 259 6 17 101 212 210 435 129 260
198 412 195 425 -3 11 -35 90 -72 175 -36 85 -80 189 -96 230 -16 41 -40 100
-54 130 -13 30 -36 89 -51 130 -15 41 -39 102 -54 135 -15 33 -33 78 -40 100
-7 22 -26 69 -42 104 -16 36 -36 85 -45 110 -8 25 -26 68 -38 96 -13 27 -30
66 -38 85 -19 42 -71 100 -91 100 -11 0 -15 -38 -20 -197 -19 -554 -20 -565
-64 -723 -33 -120 -52 -168 -113 -280 -99 -185 -124 -242 -169 -391 -21 -71
-41 -133 -45 -138 -3 -5 -19 -56 -36 -113 -20 -67 -63 -168 -125 -290 -52
-102 -94 -191 -94 -196 0 -8 76 -108 154 -202 7 -9 16 -21 20 -28 4 -7 -19
-50 -60 -109 -42 -61 -84 -139 -114 -210 l-46 -113 -16 106 c-9 58 -17 106
-19 108 -2 2 -63 42 -136 89 l-132 86 -101 12 -102 12 -114 136 c-62 74 -113
136 -111 137 2 2 88 54 334 201 l141 85 45 127 c25 69 66 182 92 251 128 340
121 313 139 620 9 151 19 333 23 404 l6 130 56 65 c30 36 60 69 65 73 7 5 7 8
-2 8 -7 0 -71 -29 -142 -65 -72 -36 -130 -63 -130 -61 0 3 21 31 48 63 62 77
120 163 162 245 l35 67 -32 98 c-25 77 -36 135 -49 273 -9 96 -20 181 -23 188
-5 8 -25 -4 -63 -38 -56 -49 -57 -50 -123 -50 l-67 0 41 -47 c22 -27 36 -50
30 -52 -6 -2 -48 11 -94 28 -76 29 -91 31 -186 29 l-104 -3 145 -28 145 -29
107 -71 c59 -40 110 -77 112 -83 2 -6 7 -55 11 -110 l7 -99 -65 -47 c-86 -62
-103 -70 -253 -122 -71 -25 -180 -64 -243 -86 l-114 -40 -96 51 c-130 70 -140
76 -593 317 -219 117 -401 212 -407 212 -17 0 -22 54 -20 232 l2 179 -104 80
c-57 44 -113 90 -124 103 -22 24 -160 136 -169 136 -4 0 -6 -58 -6 -130z m303
-125 c92 -66 87 -52 87 -260 0 -160 -2 -184 -15 -179 -22 9 -18 -4 13 -36 24
-27 27 -36 24 -89 l-4 -60 -204 192 -204 192 0 108 c0 59 1 107 3 107 2 0 34
-38 73 -85 38 -47 74 -85 79 -85 6 0 23 -14 38 -32 16 -19 24 -24 18 -12 -5
11 -17 26 -25 34 -17 14 -22 123 -10 238 l7 61 39 -32 c22 -17 58 -46 81 -62z"/>
<path d="M8801 3803 c-5 -10 -12 -39 -16 -66 -4 -26 -11 -50 -16 -53 -13 -8
-11 -53 4 -69 6 -7 37 -45 67 -84 l54 -71 84 0 84 0 -16 -22 c-8 -13 -29 -47
-47 -76 -17 -28 -36 -58 -42 -65 -7 -6 -24 -31 -40 -54 -22 -35 -27 -54 -27
-105 0 -35 4 -68 8 -73 9 -13 112 -87 112 -80 0 2 -25 23 -55 46 l-55 41 0 62
c0 60 2 63 89 196 l89 135 -92 3 -91 3 -45 60 c-25 34 -51 70 -59 81 -12 17
-13 31 -2 96 7 43 18 83 23 90 7 7 37 12 83 12 78 0 102 -12 170 -85 15 -17
22 -21 15 -10 -8 11 -34 39 -58 63 l-45 42 -83 0 c-69 0 -85 -3 -93 -17z"/>
<path d="M4323 3608 c-77 -70 -79 -73 -98 -147 -14 -57 -14 -66 -1 -85 9 -11
28 -39 44 -61 23 -33 34 -41 67 -43 52 -5 144 16 165 37 25 24 110 194 110
219 0 5 -13 28 -28 53 -24 37 -37 47 -84 62 -89 28 -109 24 -175 -35z m169 26
c52 -15 60 -21 83 -62 l25 -45 -18 -41 c-10 -23 -29 -65 -42 -93 -13 -29 -33
-61 -44 -71 -27 -24 -91 -42 -148 -42 -43 0 -45 2 -86 61 -41 59 -46 85 -23
124 3 6 6 15 6 20 5 53 119 165 169 165 11 0 46 -7 78 -16z"/>
<path d="M2300 3549 c0 -32 -4 -37 -27 -42 -16 -4 -48 -10 -73 -15 -56 -12
-70 -18 -346 -148 -42 -20 -105 -49 -139 -64 -34 -15 -117 -71 -186 -125 -68
-53 -152 -117 -186 -142 -36 -27 -67 -58 -74 -77 -7 -17 -16 -33 -20 -36 -3
-3 -22 -41 -41 -85 -20 -44 -65 -141 -101 -215 -94 -196 -135 -284 -174 -380
-19 -47 -38 -89 -43 -95 -4 -5 -25 -53 -46 -105 -21 -52 -41 -97 -45 -100 -4
-3 -21 -41 -37 -85 -17 -44 -43 -107 -60 -140 -16 -33 -39 -100 -52 -150 -12
-49 -25 -94 -30 -100 -4 -5 -24 -80 -45 -165 -21 -85 -41 -159 -45 -165 -15
-20 -70 -255 -70 -300 0 -25 9 -153 20 -283 l21 -237 -27 -120 c-14 -66 -30
-124 -35 -130 -5 -5 -9 -17 -9 -27 0 -17 127 -18 3240 -18 l3240 0 -6 43 c-7
51 -22 90 -126 317 -200 438 -310 660 -425 857 -67 117 -123 215 -123 217 0
15 -186 421 -219 476 -21 36 -53 93 -72 128 -18 34 -40 62 -47 62 -23 0 -241
201 -345 317 l-98 110 -217 26 c-119 15 -262 29 -317 32 -55 4 -140 10 -190
16 -49 5 -234 18 -410 29 -450 28 -393 12 -500 142 -80 96 -102 117 -195 175
-58 37 -137 87 -177 112 -40 25 -98 62 -130 82 -60 37 -371 234 -433 274 -212
136 -202 131 -295 148 -50 9 -134 18 -188 19 l-97 3 0 -36z"/>
</g>
</svg>
